<svg width="24" height="24" viewBox="0 0 24 24" fill="none" xmlns="http://www.w3.org/2000/svg">
<g clip-path="url(#clip0_3600_63283)">
<g clip-path="url(#clip1_3600_63283)">
<path d="M24.0515 11.9269C24.0515 12.8098 23.1033 13.5782 22.9153 14.4038C22.7191 15.2621 23.2341 16.3575 22.8662 17.134C22.4902 17.9188 21.3049 18.1967 20.7654 18.8752C20.2259 19.5536 20.2096 20.7716 19.5393 21.3111C18.869 21.8506 17.6755 21.5891 16.8908 21.9651C16.1224 22.3411 15.5828 23.4283 14.7245 23.6245C13.8989 23.8125 12.9425 23.0605 12.0515 23.0605C11.1605 23.0605 10.2123 23.8125 9.37849 23.6245C8.52018 23.4283 7.98884 22.3329 7.21228 21.9651C6.42754 21.5891 5.24225 21.8425 4.56378 21.3111C3.8853 20.7716 3.87713 19.5536 3.33762 18.8752C2.79811 18.2049 1.61282 17.9188 1.2368 17.134C0.860778 16.3656 1.38394 15.2621 1.18775 14.4038C0.999743 13.5782 0.0515137 12.8098 0.0515137 11.9269C0.0515137 11.0441 0.999743 10.2757 1.18775 9.4501C1.38394 8.59179 0.868952 7.49642 1.2368 6.71986C1.61282 5.93512 2.79811 5.65719 3.33762 4.97871C3.87713 4.30024 3.89348 3.08225 4.56378 2.54274C5.23407 2.00324 6.42754 2.26482 7.21228 1.88879C7.98067 1.51277 8.52018 0.425579 9.37849 0.229393C10.2041 0.0413824 11.1605 0.793426 12.0515 0.793426C12.9425 0.793426 13.8908 0.0413824 14.7245 0.229393C15.5828 0.425579 16.1142 1.52095 16.8908 1.88879C17.6755 2.26482 18.8608 2.01141 19.5393 2.54274C20.2177 3.08225 20.2259 4.30024 20.7654 4.97871C21.3049 5.64901 22.4902 5.93512 22.8662 6.71986C23.2422 7.48825 22.7191 8.59179 22.9153 9.4501C23.1033 10.2757 24.0515 11.0441 24.0515 11.9269Z" fill="#FFB916"/>
<path d="M17.0703 16.7171C18.5171 15.3928 19.4245 13.4882 19.4245 11.3711C19.4245 7.37378 16.1874 4.13672 12.1901 4.13672C8.19287 4.13672 4.95581 7.37378 4.95581 11.3711C4.95581 15.3683 8.19287 18.6054 12.1901 18.6054C12.9667 18.6054 13.7106 18.4828 14.4136 18.2539C14.4136 18.2539 15.8441 20.0686 18.8768 19.9296C18.8768 19.9296 17.1602 18.6054 17.0703 16.7089V16.7171Z" fill="url(#paint0_linear_3600_63283)"/>
<path d="M12.1905 4.73345C16.0815 4.73345 19.2614 7.80702 19.4167 11.6653C19.4167 11.5672 19.4167 11.4691 19.4167 11.3711C19.4167 7.37378 16.1796 4.13672 12.1823 4.13672C8.18506 4.13672 4.948 7.37378 4.948 11.3711C4.948 11.4691 4.948 11.5672 4.948 11.6735C5.10331 7.81519 8.28315 4.73345 12.1823 4.73345H12.1905Z" fill="white"/>
</g>
</g>
<defs>
<linearGradient id="paint0_linear_3600_63283" x1="16.8986" y1="5.7062" x2="9.89314" y2="18.3765" gradientUnits="userSpaceOnUse">
<stop stop-color="#CADBE3"/>
<stop offset="0.47" stop-color="white"/>
</linearGradient>
<clipPath id="clip0_3600_63283">
<rect width="24" height="24" fill="white"/>
</clipPath>
<clipPath id="clip1_3600_63283">
<rect width="24" height="23.4605" fill="white" transform="translate(0.0515137 0.196289)"/>
</clipPath>
</defs>
</svg>
